<mxfile host="app.diagrams.net" modified="2021-11-18T10:26:57.639Z" agent="5.0 (Windows NT 10.0; Win64; x64) AppleWebKit/537.36 (KHTML, like Gecko) Chrome/95.0.4638.69 Safari/537.36 Edg/95.0.1020.53" etag="Xg6AvPTXWN94dx3aKFQA" version="15.0.3" type="github">
  <diagram id="fmCub9KucS2UcLkHA3wx" name="Page-1">
    <mxGraphModel dx="2370" dy="1337" grid="1" gridSize="10" guides="1" tooltips="1" connect="1" arrows="1" fold="1" page="1" pageScale="1" pageWidth="827" pageHeight="1169" math="0" shadow="0">
      <root>
        <mxCell id="0" />
        <mxCell id="1" parent="0" />
        <mxCell id="z2Kg5yfgQwiQhaXom7FM-17" value="" style="group" vertex="1" connectable="0" parent="1">
          <mxGeometry x="630" y="30" width="240" height="200" as="geometry" />
        </mxCell>
        <mxCell id="z2Kg5yfgQwiQhaXom7FM-11" value="&lt;b style=&quot;color: rgb(0, 0, 0); font-family: arial, helvetica, sans-serif; font-size: 13.3333px;&quot;&gt;Parklawn Building Whole Loan&lt;/b&gt;" style="rounded=0;whiteSpace=wrap;html=1;fillColor=#f5f5f5;strokeColor=#666666;fontColor=#333333;align=center;labelPosition=center;verticalLabelPosition=top;verticalAlign=bottom;" vertex="1" parent="z2Kg5yfgQwiQhaXom7FM-17">
          <mxGeometry width="240" height="200" as="geometry" />
        </mxCell>
        <mxCell id="z2Kg5yfgQwiQhaXom7FM-12" value="&lt;font style=&quot;font-size: 16px&quot;&gt;&lt;b&gt;Note A-1&lt;/b&gt;&lt;/font&gt;" style="rounded=0;whiteSpace=wrap;html=1;align=center;" vertex="1" parent="z2Kg5yfgQwiQhaXom7FM-17">
          <mxGeometry width="240" height="40" as="geometry" />
        </mxCell>
        <mxCell id="z2Kg5yfgQwiQhaXom7FM-13" value="&lt;font style=&quot;font-size: 16px&quot;&gt;&lt;b&gt;Note A-2&lt;/b&gt;&lt;/font&gt;" style="rounded=0;whiteSpace=wrap;html=1;align=center;" vertex="1" parent="z2Kg5yfgQwiQhaXom7FM-17">
          <mxGeometry y="40" width="240" height="40" as="geometry" />
        </mxCell>
        <mxCell id="z2Kg5yfgQwiQhaXom7FM-14" value="&lt;font style=&quot;font-size: 16px&quot;&gt;&lt;b&gt;Note A-3&lt;/b&gt;&lt;/font&gt;" style="rounded=0;whiteSpace=wrap;html=1;align=center;" vertex="1" parent="z2Kg5yfgQwiQhaXom7FM-17">
          <mxGeometry y="80" width="240" height="40" as="geometry" />
        </mxCell>
        <mxCell id="z2Kg5yfgQwiQhaXom7FM-15" value="&lt;font style=&quot;font-size: 16px&quot;&gt;&lt;b&gt;Note A-4&lt;/b&gt;&lt;/font&gt;" style="rounded=0;whiteSpace=wrap;html=1;align=center;" vertex="1" parent="z2Kg5yfgQwiQhaXom7FM-17">
          <mxGeometry y="120" width="240" height="40" as="geometry" />
        </mxCell>
        <mxCell id="z2Kg5yfgQwiQhaXom7FM-16" value="&lt;font style=&quot;font-size: 16px&quot;&gt;&lt;b&gt;Note A-5&lt;/b&gt;&lt;/font&gt;" style="rounded=0;whiteSpace=wrap;html=1;align=center;" vertex="1" parent="z2Kg5yfgQwiQhaXom7FM-17">
          <mxGeometry y="160" width="240" height="40" as="geometry" />
        </mxCell>
        <mxCell id="z2Kg5yfgQwiQhaXom7FM-22" value="" style="group;fillColor=#fff2cc;strokeColor=#d6b656;" vertex="1" connectable="0" parent="1">
          <mxGeometry x="210" y="50" width="260" height="680" as="geometry" />
        </mxCell>
        <mxCell id="z2Kg5yfgQwiQhaXom7FM-19" value="&lt;b style=&quot;font-family: &amp;#34;arial&amp;#34; , &amp;#34;helvetica&amp;#34; , sans-serif ; font-size: 16px&quot;&gt;CF 2019-CF3&lt;/b&gt;" style="rounded=0;whiteSpace=wrap;html=1;align=center;labelPosition=center;verticalLabelPosition=top;verticalAlign=bottom;" vertex="1" parent="z2Kg5yfgQwiQhaXom7FM-22">
          <mxGeometry width="260" height="680" as="geometry" />
        </mxCell>
        <mxCell id="z2Kg5yfgQwiQhaXom7FM-1" value="&lt;font style=&quot;font-size: 16px&quot;&gt;Parklawn Building&lt;/font&gt;" style="rounded=0;whiteSpace=wrap;html=1;fillColor=#dae8fc;strokeColor=#6c8ebf;" vertex="1" parent="z2Kg5yfgQwiQhaXom7FM-22">
          <mxGeometry x="10" y="10" width="240" height="60" as="geometry" />
        </mxCell>
        <mxCell id="z2Kg5yfgQwiQhaXom7FM-2" value="&lt;font style=&quot;font-size: 16px&quot;&gt;Century Plaza Towers&lt;/font&gt;" style="rounded=0;whiteSpace=wrap;html=1;fillColor=#dae8fc;strokeColor=#6c8ebf;" vertex="1" parent="z2Kg5yfgQwiQhaXom7FM-22">
          <mxGeometry x="10" y="70" width="240" height="60" as="geometry" />
        </mxCell>
        <mxCell id="z2Kg5yfgQwiQhaXom7FM-3" value="&lt;font style=&quot;font-size: 16px&quot;&gt;DC Mixed Use Portfolio VI&lt;/font&gt;" style="rounded=0;whiteSpace=wrap;html=1;fillColor=#dae8fc;strokeColor=#6c8ebf;" vertex="1" parent="z2Kg5yfgQwiQhaXom7FM-22">
          <mxGeometry x="10" y="130" width="240" height="60" as="geometry" />
        </mxCell>
        <mxCell id="z2Kg5yfgQwiQhaXom7FM-4" value="&lt;font style=&quot;font-size: 16px&quot;&gt;Wells Fargo Place&lt;/font&gt;" style="rounded=0;whiteSpace=wrap;html=1;fillColor=#dae8fc;strokeColor=#6c8ebf;" vertex="1" parent="z2Kg5yfgQwiQhaXom7FM-22">
          <mxGeometry x="10" y="190" width="240" height="60" as="geometry" />
        </mxCell>
        <mxCell id="z2Kg5yfgQwiQhaXom7FM-5" value="&lt;font style=&quot;font-size: 16px&quot;&gt;225 Bush&lt;/font&gt;" style="rounded=0;whiteSpace=wrap;html=1;fillColor=#dae8fc;strokeColor=#6c8ebf;" vertex="1" parent="z2Kg5yfgQwiQhaXom7FM-22">
          <mxGeometry x="10" y="250" width="240" height="60" as="geometry" />
        </mxCell>
        <mxCell id="z2Kg5yfgQwiQhaXom7FM-6" value="&lt;font style=&quot;font-size: 16px&quot;&gt;180 Water&lt;/font&gt;" style="rounded=0;whiteSpace=wrap;html=1;fillColor=#dae8fc;strokeColor=#6c8ebf;" vertex="1" parent="z2Kg5yfgQwiQhaXom7FM-22">
          <mxGeometry x="10" y="310" width="240" height="60" as="geometry" />
        </mxCell>
        <mxCell id="z2Kg5yfgQwiQhaXom7FM-7" value="&lt;font style=&quot;font-size: 16px&quot;&gt;3 Columbus Circle&lt;/font&gt;" style="rounded=0;whiteSpace=wrap;html=1;fillColor=#dae8fc;strokeColor=#6c8ebf;" vertex="1" parent="z2Kg5yfgQwiQhaXom7FM-22">
          <mxGeometry x="10" y="370" width="240" height="60" as="geometry" />
        </mxCell>
        <mxCell id="z2Kg5yfgQwiQhaXom7FM-8" value="&lt;font style=&quot;font-size: 16px&quot;&gt;Park Central Tower&lt;/font&gt;" style="rounded=0;whiteSpace=wrap;html=1;fillColor=#dae8fc;strokeColor=#6c8ebf;" vertex="1" parent="z2Kg5yfgQwiQhaXom7FM-22">
          <mxGeometry x="10" y="430" width="240" height="60" as="geometry" />
        </mxCell>
        <mxCell id="z2Kg5yfgQwiQhaXom7FM-9" value="&lt;font style=&quot;font-size: 16px&quot;&gt;Bushwick Avenue Portfolio&lt;/font&gt;" style="rounded=0;whiteSpace=wrap;html=1;fillColor=#dae8fc;strokeColor=#6c8ebf;" vertex="1" parent="z2Kg5yfgQwiQhaXom7FM-22">
          <mxGeometry x="10" y="550" width="240" height="60" as="geometry" />
        </mxCell>
        <mxCell id="z2Kg5yfgQwiQhaXom7FM-10" value="&lt;font style=&quot;font-size: 16px&quot;&gt;Airport Square&lt;/font&gt;" style="rounded=0;whiteSpace=wrap;html=1;fillColor=#dae8fc;strokeColor=#6c8ebf;" vertex="1" parent="z2Kg5yfgQwiQhaXom7FM-22">
          <mxGeometry x="10" y="490" width="240" height="60" as="geometry" />
        </mxCell>
        <mxCell id="z2Kg5yfgQwiQhaXom7FM-20" value="&lt;font style=&quot;font-size: 16px&quot;&gt;&lt;b&gt;......&lt;/b&gt;&lt;/font&gt;" style="rounded=0;whiteSpace=wrap;html=1;fillColor=#dae8fc;strokeColor=#6c8ebf;" vertex="1" parent="z2Kg5yfgQwiQhaXom7FM-22">
          <mxGeometry x="10" y="610" width="240" height="60" as="geometry" />
        </mxCell>
        <mxCell id="z2Kg5yfgQwiQhaXom7FM-23" value="&lt;b&gt;MSC 2019-L3&lt;/b&gt;" style="rounded=0;whiteSpace=wrap;html=1;align=center;fillColor=#fff2cc;strokeColor=#d6b656;" vertex="1" parent="1">
          <mxGeometry x="1500" y="50" width="120" height="60" as="geometry" />
        </mxCell>
        <mxCell id="z2Kg5yfgQwiQhaXom7FM-24" style="edgeStyle=orthogonalEdgeStyle;rounded=0;orthogonalLoop=1;jettySize=auto;html=1;exitX=1;exitY=0.5;exitDx=0;exitDy=0;entryX=0;entryY=0.5;entryDx=0;entryDy=0;" edge="1" parent="1" source="z2Kg5yfgQwiQhaXom7FM-12" target="z2Kg5yfgQwiQhaXom7FM-23">
          <mxGeometry relative="1" as="geometry" />
        </mxCell>
        <mxCell id="z2Kg5yfgQwiQhaXom7FM-25" style="edgeStyle=orthogonalEdgeStyle;rounded=0;orthogonalLoop=1;jettySize=auto;html=1;exitX=0;exitY=0.5;exitDx=0;exitDy=0;entryX=1;entryY=0.5;entryDx=0;entryDy=0;" edge="1" parent="1" source="z2Kg5yfgQwiQhaXom7FM-13" target="z2Kg5yfgQwiQhaXom7FM-1">
          <mxGeometry relative="1" as="geometry">
            <Array as="points">
              <mxPoint x="560" y="120" />
              <mxPoint x="560" y="90" />
            </Array>
          </mxGeometry>
        </mxCell>
        <mxCell id="z2Kg5yfgQwiQhaXom7FM-26" style="edgeStyle=orthogonalEdgeStyle;rounded=0;orthogonalLoop=1;jettySize=auto;html=1;exitX=0;exitY=0.5;exitDx=0;exitDy=0;" edge="1" parent="1" source="z2Kg5yfgQwiQhaXom7FM-14">
          <mxGeometry relative="1" as="geometry">
            <mxPoint x="470" y="90" as="targetPoint" />
            <Array as="points">
              <mxPoint x="560" y="160" />
              <mxPoint x="560" y="90" />
            </Array>
          </mxGeometry>
        </mxCell>
        <mxCell id="z2Kg5yfgQwiQhaXom7FM-27" value="&lt;b&gt;Bank of America, N.A.&lt;/b&gt;" style="rounded=0;whiteSpace=wrap;html=1;align=center;fillColor=#fff2cc;strokeColor=#d6b656;" vertex="1" parent="1">
          <mxGeometry x="1360" y="240" width="120" height="60" as="geometry" />
        </mxCell>
        <mxCell id="z2Kg5yfgQwiQhaXom7FM-30" value="" style="group" vertex="1" connectable="0" parent="1">
          <mxGeometry x="630" y="270" width="240" height="200" as="geometry" />
        </mxCell>
        <mxCell id="z2Kg5yfgQwiQhaXom7FM-31" value="&lt;font color=&quot;#000000&quot; face=&quot;arial, helvetica, sans-serif&quot;&gt;&lt;span style=&quot;font-size: 13.3333px&quot;&gt;&lt;b&gt;Century Plaza Towers Whole Loan&lt;/b&gt;&lt;/span&gt;&lt;/font&gt;" style="rounded=0;whiteSpace=wrap;html=1;fillColor=#f5f5f5;strokeColor=#666666;fontColor=#333333;align=center;labelPosition=center;verticalLabelPosition=top;verticalAlign=bottom;" vertex="1" parent="z2Kg5yfgQwiQhaXom7FM-30">
          <mxGeometry width="240" height="200" as="geometry" />
        </mxCell>
        <mxCell id="z2Kg5yfgQwiQhaXom7FM-32" value="&lt;b style=&quot;font-size: 16px&quot;&gt;A-1-S1, A-1-S2, A-1-S3....&lt;/b&gt;" style="rounded=0;whiteSpace=wrap;html=1;align=center;" vertex="1" parent="z2Kg5yfgQwiQhaXom7FM-30">
          <mxGeometry width="240" height="40" as="geometry" />
        </mxCell>
        <mxCell id="z2Kg5yfgQwiQhaXom7FM-33" value="&lt;span style=&quot;font-size: 16px&quot;&gt;&lt;b&gt;A-1-C4, A-1-C5&lt;/b&gt;&lt;/span&gt;" style="rounded=0;whiteSpace=wrap;html=1;align=center;" vertex="1" parent="z2Kg5yfgQwiQhaXom7FM-30">
          <mxGeometry y="40" width="240" height="40" as="geometry" />
        </mxCell>
        <mxCell id="z2Kg5yfgQwiQhaXom7FM-34" value="&lt;b style=&quot;font-size: 16px&quot;&gt;A-1-C3, A-1-C8&lt;/b&gt;" style="rounded=0;whiteSpace=wrap;html=1;align=center;" vertex="1" parent="z2Kg5yfgQwiQhaXom7FM-30">
          <mxGeometry y="80" width="240" height="40" as="geometry" />
        </mxCell>
        <mxCell id="z2Kg5yfgQwiQhaXom7FM-35" value="&lt;div&gt;&lt;span style=&quot;font-size: 16px&quot;&gt;&lt;b&gt;Note A-1-C6,&lt;/b&gt;&lt;/span&gt;&lt;/div&gt;&lt;div&gt;&lt;span style=&quot;font-size: 16px&quot;&gt;&lt;b&gt;Note A-1-C7&lt;/b&gt;&lt;/span&gt;&lt;/div&gt;" style="rounded=0;whiteSpace=wrap;html=1;align=center;" vertex="1" parent="z2Kg5yfgQwiQhaXom7FM-30">
          <mxGeometry y="120" width="240" height="40" as="geometry" />
        </mxCell>
        <mxCell id="z2Kg5yfgQwiQhaXom7FM-36" value="&lt;font style=&quot;font-size: 16px&quot;&gt;&lt;b&gt;.....&lt;/b&gt;&lt;/font&gt;" style="rounded=0;whiteSpace=wrap;html=1;align=center;" vertex="1" parent="z2Kg5yfgQwiQhaXom7FM-30">
          <mxGeometry y="160" width="240" height="40" as="geometry" />
        </mxCell>
        <mxCell id="z2Kg5yfgQwiQhaXom7FM-37" style="edgeStyle=orthogonalEdgeStyle;rounded=0;orthogonalLoop=1;jettySize=auto;html=1;exitX=0;exitY=0.5;exitDx=0;exitDy=0;entryX=1;entryY=0.5;entryDx=0;entryDy=0;" edge="1" parent="1" source="z2Kg5yfgQwiQhaXom7FM-35" target="z2Kg5yfgQwiQhaXom7FM-2">
          <mxGeometry relative="1" as="geometry" />
        </mxCell>
        <mxCell id="z2Kg5yfgQwiQhaXom7FM-38" value="&lt;b&gt;CPTS 2019-CPT&lt;/b&gt;" style="rounded=0;whiteSpace=wrap;html=1;align=center;fillColor=#fff2cc;strokeColor=#d6b656;" vertex="1" parent="1">
          <mxGeometry x="980" y="270" width="120" height="40" as="geometry" />
        </mxCell>
        <mxCell id="z2Kg5yfgQwiQhaXom7FM-39" style="edgeStyle=orthogonalEdgeStyle;rounded=0;orthogonalLoop=1;jettySize=auto;html=1;entryX=0;entryY=0.5;entryDx=0;entryDy=0;" edge="1" parent="1" source="z2Kg5yfgQwiQhaXom7FM-32" target="z2Kg5yfgQwiQhaXom7FM-38">
          <mxGeometry relative="1" as="geometry" />
        </mxCell>
        <mxCell id="z2Kg5yfgQwiQhaXom7FM-41" style="edgeStyle=orthogonalEdgeStyle;rounded=0;orthogonalLoop=1;jettySize=auto;html=1;exitX=1;exitY=0.5;exitDx=0;exitDy=0;entryX=0;entryY=0.5;entryDx=0;entryDy=0;" edge="1" parent="1" source="z2Kg5yfgQwiQhaXom7FM-33" target="z2Kg5yfgQwiQhaXom7FM-43">
          <mxGeometry relative="1" as="geometry">
            <mxPoint x="950" y="400" as="targetPoint" />
          </mxGeometry>
        </mxCell>
        <mxCell id="z2Kg5yfgQwiQhaXom7FM-43" value="&lt;b&gt;COMM 2019-GC44&lt;/b&gt;" style="rounded=0;whiteSpace=wrap;html=1;align=center;fillColor=#fff2cc;strokeColor=#d6b656;" vertex="1" parent="1">
          <mxGeometry x="1450" y="540" width="120" height="40" as="geometry" />
        </mxCell>
        <mxCell id="z2Kg5yfgQwiQhaXom7FM-44" value="&lt;b&gt;JPMDB 2019-COR6&lt;/b&gt;" style="rounded=0;whiteSpace=wrap;html=1;align=center;fillColor=#fff2cc;strokeColor=#d6b656;" vertex="1" parent="1">
          <mxGeometry x="950" y="410" width="120" height="40" as="geometry" />
        </mxCell>
        <mxCell id="z2Kg5yfgQwiQhaXom7FM-45" style="edgeStyle=orthogonalEdgeStyle;rounded=0;orthogonalLoop=1;jettySize=auto;html=1;exitX=1;exitY=0.5;exitDx=0;exitDy=0;entryX=0;entryY=0.5;entryDx=0;entryDy=0;" edge="1" parent="1" source="z2Kg5yfgQwiQhaXom7FM-34" target="z2Kg5yfgQwiQhaXom7FM-44">
          <mxGeometry relative="1" as="geometry" />
        </mxCell>
        <mxCell id="z2Kg5yfgQwiQhaXom7FM-46" style="edgeStyle=orthogonalEdgeStyle;rounded=0;orthogonalLoop=1;jettySize=auto;html=1;exitX=1;exitY=0.5;exitDx=0;exitDy=0;entryX=0;entryY=0.5;entryDx=0;entryDy=0;" edge="1" parent="1" source="z2Kg5yfgQwiQhaXom7FM-15" target="z2Kg5yfgQwiQhaXom7FM-27">
          <mxGeometry relative="1" as="geometry" />
        </mxCell>
        <mxCell id="z2Kg5yfgQwiQhaXom7FM-47" style="edgeStyle=orthogonalEdgeStyle;rounded=0;orthogonalLoop=1;jettySize=auto;html=1;exitX=1;exitY=0.5;exitDx=0;exitDy=0;entryX=0.017;entryY=0.617;entryDx=0;entryDy=0;entryPerimeter=0;" edge="1" parent="1" source="z2Kg5yfgQwiQhaXom7FM-16" target="z2Kg5yfgQwiQhaXom7FM-27">
          <mxGeometry relative="1" as="geometry">
            <mxPoint x="1020" y="150" as="targetPoint" />
            <Array as="points">
              <mxPoint x="950" y="210" />
              <mxPoint x="950" y="150" />
              <mxPoint x="1362" y="150" />
            </Array>
          </mxGeometry>
        </mxCell>
        <mxCell id="z2Kg5yfgQwiQhaXom7FM-51" value="" style="group" vertex="1" connectable="0" parent="1">
          <mxGeometry x="630" y="500" width="240" height="200" as="geometry" />
        </mxCell>
        <mxCell id="z2Kg5yfgQwiQhaXom7FM-52" value="&lt;font color=&quot;#000000&quot; face=&quot;arial, helvetica, sans-serif&quot;&gt;&lt;span style=&quot;font-size: 13.3333px&quot;&gt;&lt;b&gt;Wells Fargo Place&lt;/b&gt;&lt;/span&gt;&lt;/font&gt;" style="rounded=0;whiteSpace=wrap;html=1;fillColor=#f5f5f5;strokeColor=#666666;fontColor=#333333;align=center;labelPosition=center;verticalLabelPosition=top;verticalAlign=bottom;" vertex="1" parent="z2Kg5yfgQwiQhaXom7FM-51">
          <mxGeometry width="240" height="200" as="geometry" />
        </mxCell>
        <mxCell id="z2Kg5yfgQwiQhaXom7FM-53" value="&lt;span style=&quot;font-size: 16px&quot;&gt;&lt;b&gt;Note A-1&lt;/b&gt;&lt;/span&gt;" style="rounded=0;whiteSpace=wrap;html=1;align=center;" vertex="1" parent="z2Kg5yfgQwiQhaXom7FM-51">
          <mxGeometry width="240" height="40" as="geometry" />
        </mxCell>
        <mxCell id="z2Kg5yfgQwiQhaXom7FM-54" value="&lt;span style=&quot;font-size: 16px&quot;&gt;&lt;b&gt;Note A-2&lt;/b&gt;&lt;/span&gt;" style="rounded=0;whiteSpace=wrap;html=1;align=center;" vertex="1" parent="z2Kg5yfgQwiQhaXom7FM-51">
          <mxGeometry y="40" width="240" height="40" as="geometry" />
        </mxCell>
        <mxCell id="z2Kg5yfgQwiQhaXom7FM-55" value="&lt;span style=&quot;font-size: 16px&quot;&gt;&lt;b&gt;Note A-3&lt;/b&gt;&lt;/span&gt;" style="rounded=0;whiteSpace=wrap;html=1;align=center;" vertex="1" parent="z2Kg5yfgQwiQhaXom7FM-51">
          <mxGeometry y="80" width="240" height="40" as="geometry" />
        </mxCell>
        <mxCell id="z2Kg5yfgQwiQhaXom7FM-56" value="&lt;div&gt;&lt;span style=&quot;font-size: 16px&quot;&gt;&lt;b&gt;Note A-4, Note&lt;/b&gt;&lt;/span&gt;&lt;/div&gt;&lt;div&gt;&lt;span style=&quot;font-size: 16px&quot;&gt;&lt;b&gt;A-5...&lt;/b&gt;&lt;/span&gt;&lt;/div&gt;" style="rounded=0;whiteSpace=wrap;html=1;align=center;" vertex="1" parent="z2Kg5yfgQwiQhaXom7FM-51">
          <mxGeometry y="120" width="240" height="40" as="geometry" />
        </mxCell>
        <mxCell id="z2Kg5yfgQwiQhaXom7FM-57" value="&lt;font style=&quot;font-size: 16px&quot;&gt;&lt;b&gt;.....&lt;/b&gt;&lt;/font&gt;" style="rounded=0;whiteSpace=wrap;html=1;align=center;" vertex="1" parent="z2Kg5yfgQwiQhaXom7FM-51">
          <mxGeometry y="160" width="240" height="40" as="geometry" />
        </mxCell>
        <mxCell id="z2Kg5yfgQwiQhaXom7FM-59" value="&lt;b&gt;Starwood Mortgage Funding III&lt;/b&gt;" style="rounded=0;whiteSpace=wrap;html=1;align=center;fillColor=#fff2cc;strokeColor=#d6b656;" vertex="1" parent="1">
          <mxGeometry x="950" y="565" width="120" height="40" as="geometry" />
        </mxCell>
        <mxCell id="z2Kg5yfgQwiQhaXom7FM-61" style="edgeStyle=orthogonalEdgeStyle;rounded=0;orthogonalLoop=1;jettySize=auto;html=1;exitX=1;exitY=0.5;exitDx=0;exitDy=0;entryX=0;entryY=0.5;entryDx=0;entryDy=0;" edge="1" parent="1" source="z2Kg5yfgQwiQhaXom7FM-53" target="z2Kg5yfgQwiQhaXom7FM-23">
          <mxGeometry relative="1" as="geometry" />
        </mxCell>
        <mxCell id="z2Kg5yfgQwiQhaXom7FM-62" style="edgeStyle=orthogonalEdgeStyle;rounded=0;orthogonalLoop=1;jettySize=auto;html=1;exitX=1;exitY=0.5;exitDx=0;exitDy=0;entryX=0;entryY=0.5;entryDx=0;entryDy=0;" edge="1" parent="1" source="z2Kg5yfgQwiQhaXom7FM-54" target="z2Kg5yfgQwiQhaXom7FM-23">
          <mxGeometry relative="1" as="geometry" />
        </mxCell>
        <mxCell id="z2Kg5yfgQwiQhaXom7FM-63" style="edgeStyle=orthogonalEdgeStyle;rounded=0;orthogonalLoop=1;jettySize=auto;html=1;exitX=1;exitY=0.5;exitDx=0;exitDy=0;entryX=0;entryY=0.5;entryDx=0;entryDy=0;" edge="1" parent="1" source="z2Kg5yfgQwiQhaXom7FM-55" target="z2Kg5yfgQwiQhaXom7FM-59">
          <mxGeometry relative="1" as="geometry" />
        </mxCell>
        <mxCell id="z2Kg5yfgQwiQhaXom7FM-64" style="edgeStyle=orthogonalEdgeStyle;rounded=0;orthogonalLoop=1;jettySize=auto;html=1;exitX=0;exitY=0.5;exitDx=0;exitDy=0;entryX=1;entryY=0.5;entryDx=0;entryDy=0;" edge="1" parent="1" source="z2Kg5yfgQwiQhaXom7FM-56" target="z2Kg5yfgQwiQhaXom7FM-4">
          <mxGeometry relative="1" as="geometry" />
        </mxCell>
        <mxCell id="z2Kg5yfgQwiQhaXom7FM-65" value="" style="group" vertex="1" connectable="0" parent="1">
          <mxGeometry x="630" y="740" width="240" height="200" as="geometry" />
        </mxCell>
        <mxCell id="z2Kg5yfgQwiQhaXom7FM-66" value="&lt;font color=&quot;#000000&quot; face=&quot;arial, helvetica, sans-serif&quot;&gt;&lt;span style=&quot;font-size: 13.3333px&quot;&gt;&lt;b&gt;225 Bush&lt;/b&gt;&lt;/span&gt;&lt;/font&gt;" style="rounded=0;whiteSpace=wrap;html=1;fillColor=#f5f5f5;strokeColor=#666666;fontColor=#333333;align=center;labelPosition=center;verticalLabelPosition=top;verticalAlign=bottom;" vertex="1" parent="z2Kg5yfgQwiQhaXom7FM-65">
          <mxGeometry width="240" height="200" as="geometry" />
        </mxCell>
        <mxCell id="z2Kg5yfgQwiQhaXom7FM-67" value="&lt;span style=&quot;font-size: 16px&quot;&gt;&lt;b&gt;Note A-1, Note A-6&lt;/b&gt;&lt;/span&gt;" style="rounded=0;whiteSpace=wrap;html=1;align=center;" vertex="1" parent="z2Kg5yfgQwiQhaXom7FM-65">
          <mxGeometry width="240" height="40" as="geometry" />
        </mxCell>
        <mxCell id="z2Kg5yfgQwiQhaXom7FM-68" value="&lt;span style=&quot;font-size: 16px&quot;&gt;&lt;b&gt;Note A-2&lt;/b&gt;&lt;/span&gt;" style="rounded=0;whiteSpace=wrap;html=1;align=center;" vertex="1" parent="z2Kg5yfgQwiQhaXom7FM-65">
          <mxGeometry y="40" width="240" height="40" as="geometry" />
        </mxCell>
        <mxCell id="z2Kg5yfgQwiQhaXom7FM-69" value="&lt;span style=&quot;font-size: 16px&quot;&gt;&lt;b&gt;Note A-3, Note A-4&lt;/b&gt;&lt;/span&gt;" style="rounded=0;whiteSpace=wrap;html=1;align=center;" vertex="1" parent="z2Kg5yfgQwiQhaXom7FM-65">
          <mxGeometry y="80" width="240" height="40" as="geometry" />
        </mxCell>
        <mxCell id="z2Kg5yfgQwiQhaXom7FM-70" value="&lt;span style=&quot;font-size: 16px&quot;&gt;&lt;b&gt;Note A-5&lt;/b&gt;&lt;/span&gt;" style="rounded=0;whiteSpace=wrap;html=1;align=center;" vertex="1" parent="z2Kg5yfgQwiQhaXom7FM-65">
          <mxGeometry y="120" width="240" height="40" as="geometry" />
        </mxCell>
        <mxCell id="z2Kg5yfgQwiQhaXom7FM-71" value="&lt;span style=&quot;font-size: 16px&quot;&gt;&lt;b&gt;Note B&lt;/b&gt;&lt;/span&gt;" style="rounded=0;whiteSpace=wrap;html=1;align=center;" vertex="1" parent="z2Kg5yfgQwiQhaXom7FM-65">
          <mxGeometry y="160" width="240" height="40" as="geometry" />
        </mxCell>
        <mxCell id="z2Kg5yfgQwiQhaXom7FM-72" value="&lt;b&gt;Benchmark 2019-B14&lt;/b&gt;" style="rounded=0;whiteSpace=wrap;html=1;align=center;fillColor=#fff2cc;strokeColor=#d6b656;" vertex="1" parent="1">
          <mxGeometry x="970" y="750" width="120" height="40" as="geometry" />
        </mxCell>
        <mxCell id="z2Kg5yfgQwiQhaXom7FM-74" value="&lt;b&gt;DBRI&lt;/b&gt;" style="rounded=0;whiteSpace=wrap;html=1;align=center;fillColor=#fff2cc;strokeColor=#d6b656;" vertex="1" parent="1">
          <mxGeometry x="1020" y="840" width="120" height="40" as="geometry" />
        </mxCell>
        <mxCell id="z2Kg5yfgQwiQhaXom7FM-75" value="&lt;b&gt;Benchmark 2019-B10&lt;/b&gt;" style="rounded=0;whiteSpace=wrap;html=1;align=center;fillColor=#fff2cc;strokeColor=#d6b656;" vertex="1" parent="1">
          <mxGeometry x="1110" y="1220" width="120" height="40" as="geometry" />
        </mxCell>
        <mxCell id="z2Kg5yfgQwiQhaXom7FM-76" style="edgeStyle=orthogonalEdgeStyle;rounded=0;orthogonalLoop=1;jettySize=auto;html=1;exitX=1;exitY=0.5;exitDx=0;exitDy=0;entryX=0;entryY=0.5;entryDx=0;entryDy=0;" edge="1" parent="1" source="z2Kg5yfgQwiQhaXom7FM-71" target="z2Kg5yfgQwiQhaXom7FM-72">
          <mxGeometry relative="1" as="geometry" />
        </mxCell>
        <mxCell id="z2Kg5yfgQwiQhaXom7FM-77" style="edgeStyle=orthogonalEdgeStyle;rounded=0;orthogonalLoop=1;jettySize=auto;html=1;exitX=1;exitY=0.5;exitDx=0;exitDy=0;entryX=0;entryY=0.25;entryDx=0;entryDy=0;" edge="1" parent="1" source="z2Kg5yfgQwiQhaXom7FM-67" target="z2Kg5yfgQwiQhaXom7FM-72">
          <mxGeometry relative="1" as="geometry">
            <mxPoint x="930" y="760" as="targetPoint" />
          </mxGeometry>
        </mxCell>
        <mxCell id="z2Kg5yfgQwiQhaXom7FM-80" style="edgeStyle=orthogonalEdgeStyle;rounded=0;orthogonalLoop=1;jettySize=auto;html=1;exitX=1;exitY=0.5;exitDx=0;exitDy=0;entryX=0;entryY=0.75;entryDx=0;entryDy=0;" edge="1" parent="1" source="z2Kg5yfgQwiQhaXom7FM-68" target="z2Kg5yfgQwiQhaXom7FM-43">
          <mxGeometry relative="1" as="geometry" />
        </mxCell>
        <mxCell id="z2Kg5yfgQwiQhaXom7FM-81" style="edgeStyle=orthogonalEdgeStyle;rounded=0;orthogonalLoop=1;jettySize=auto;html=1;exitX=0;exitY=0.5;exitDx=0;exitDy=0;entryX=1;entryY=0.5;entryDx=0;entryDy=0;" edge="1" parent="1" source="z2Kg5yfgQwiQhaXom7FM-70" target="z2Kg5yfgQwiQhaXom7FM-5">
          <mxGeometry relative="1" as="geometry" />
        </mxCell>
        <mxCell id="z2Kg5yfgQwiQhaXom7FM-82" style="edgeStyle=orthogonalEdgeStyle;rounded=0;orthogonalLoop=1;jettySize=auto;html=1;exitX=1;exitY=0.5;exitDx=0;exitDy=0;entryX=0;entryY=0.5;entryDx=0;entryDy=0;" edge="1" parent="1" source="z2Kg5yfgQwiQhaXom7FM-69" target="z2Kg5yfgQwiQhaXom7FM-74">
          <mxGeometry relative="1" as="geometry" />
        </mxCell>
        <mxCell id="z2Kg5yfgQwiQhaXom7FM-91" style="edgeStyle=orthogonalEdgeStyle;rounded=0;orthogonalLoop=1;jettySize=auto;html=1;exitX=1;exitY=0.5;exitDx=0;exitDy=0;entryX=0;entryY=0.5;entryDx=0;entryDy=0;" edge="1" parent="1" source="z2Kg5yfgQwiQhaXom7FM-86" target="z2Kg5yfgQwiQhaXom7FM-72">
          <mxGeometry relative="1" as="geometry" />
        </mxCell>
        <mxCell id="z2Kg5yfgQwiQhaXom7FM-92" style="edgeStyle=orthogonalEdgeStyle;rounded=0;orthogonalLoop=1;jettySize=auto;html=1;exitX=1;exitY=0.5;exitDx=0;exitDy=0;entryX=0;entryY=0.75;entryDx=0;entryDy=0;" edge="1" parent="1" source="z2Kg5yfgQwiQhaXom7FM-87" target="z2Kg5yfgQwiQhaXom7FM-43">
          <mxGeometry relative="1" as="geometry" />
        </mxCell>
        <mxCell id="z2Kg5yfgQwiQhaXom7FM-93" style="edgeStyle=orthogonalEdgeStyle;rounded=0;orthogonalLoop=1;jettySize=auto;html=1;exitX=0;exitY=0.5;exitDx=0;exitDy=0;entryX=1;entryY=0.5;entryDx=0;entryDy=0;" edge="1" parent="1" source="z2Kg5yfgQwiQhaXom7FM-88" target="z2Kg5yfgQwiQhaXom7FM-6">
          <mxGeometry relative="1" as="geometry" />
        </mxCell>
        <mxCell id="z2Kg5yfgQwiQhaXom7FM-94" style="edgeStyle=orthogonalEdgeStyle;rounded=0;orthogonalLoop=1;jettySize=auto;html=1;exitX=1;exitY=0.5;exitDx=0;exitDy=0;entryX=0;entryY=0.75;entryDx=0;entryDy=0;" edge="1" parent="1" source="z2Kg5yfgQwiQhaXom7FM-89" target="z2Kg5yfgQwiQhaXom7FM-43">
          <mxGeometry relative="1" as="geometry" />
        </mxCell>
        <mxCell id="z2Kg5yfgQwiQhaXom7FM-105" value="" style="group" vertex="1" connectable="0" parent="1">
          <mxGeometry x="630" y="980" width="240" height="160" as="geometry" />
        </mxCell>
        <mxCell id="z2Kg5yfgQwiQhaXom7FM-85" value="&lt;font color=&quot;#000000&quot; face=&quot;arial, helvetica, sans-serif&quot;&gt;&lt;span style=&quot;font-size: 13.3333px&quot;&gt;&lt;b&gt;180 Water&lt;/b&gt;&lt;/span&gt;&lt;/font&gt;" style="rounded=0;whiteSpace=wrap;html=1;fillColor=#f5f5f5;strokeColor=#666666;fontColor=#333333;align=center;labelPosition=center;verticalLabelPosition=top;verticalAlign=bottom;" vertex="1" parent="z2Kg5yfgQwiQhaXom7FM-105">
          <mxGeometry width="240" height="160" as="geometry" />
        </mxCell>
        <mxCell id="z2Kg5yfgQwiQhaXom7FM-86" value="&lt;span style=&quot;font-size: 16px&quot;&gt;&lt;b&gt;Note A-1&lt;/b&gt;&lt;/span&gt;" style="rounded=0;whiteSpace=wrap;html=1;align=center;" vertex="1" parent="z2Kg5yfgQwiQhaXom7FM-105">
          <mxGeometry width="240" height="40" as="geometry" />
        </mxCell>
        <mxCell id="z2Kg5yfgQwiQhaXom7FM-87" value="&lt;span style=&quot;font-size: 16px&quot;&gt;&lt;b&gt;Note A-2, Note A-4, Note A-5&lt;/b&gt;&lt;/span&gt;" style="rounded=0;whiteSpace=wrap;html=1;align=center;" vertex="1" parent="z2Kg5yfgQwiQhaXom7FM-105">
          <mxGeometry y="40" width="240" height="40" as="geometry" />
        </mxCell>
        <mxCell id="z2Kg5yfgQwiQhaXom7FM-88" value="&lt;span style=&quot;font-size: 16px&quot;&gt;&lt;b&gt;Note A-3&lt;/b&gt;&lt;/span&gt;" style="rounded=0;whiteSpace=wrap;html=1;align=center;" vertex="1" parent="z2Kg5yfgQwiQhaXom7FM-105">
          <mxGeometry y="80" width="240" height="40" as="geometry" />
        </mxCell>
        <mxCell id="z2Kg5yfgQwiQhaXom7FM-89" value="&lt;b style=&quot;font-size: 16px&quot;&gt;Note B&lt;/b&gt;" style="rounded=0;whiteSpace=wrap;html=1;align=center;" vertex="1" parent="z2Kg5yfgQwiQhaXom7FM-105">
          <mxGeometry y="120" width="240" height="40" as="geometry" />
        </mxCell>
        <mxCell id="z2Kg5yfgQwiQhaXom7FM-106" style="edgeStyle=orthogonalEdgeStyle;rounded=0;orthogonalLoop=1;jettySize=auto;html=1;exitX=1;exitY=0.5;exitDx=0;exitDy=0;" edge="1" parent="1" source="z2Kg5yfgQwiQhaXom7FM-97" target="z2Kg5yfgQwiQhaXom7FM-75">
          <mxGeometry relative="1" as="geometry" />
        </mxCell>
        <mxCell id="z2Kg5yfgQwiQhaXom7FM-107" value="&lt;b&gt;JPMDB 2019-COR5&lt;/b&gt;" style="rounded=0;whiteSpace=wrap;html=1;align=center;fillColor=#fff2cc;strokeColor=#d6b656;" vertex="1" parent="1">
          <mxGeometry x="1100" y="1290" width="120" height="40" as="geometry" />
        </mxCell>
        <mxCell id="z2Kg5yfgQwiQhaXom7FM-108" style="edgeStyle=orthogonalEdgeStyle;rounded=0;orthogonalLoop=1;jettySize=auto;html=1;exitX=1;exitY=0.5;exitDx=0;exitDy=0;" edge="1" parent="1" source="z2Kg5yfgQwiQhaXom7FM-98" target="z2Kg5yfgQwiQhaXom7FM-107">
          <mxGeometry relative="1" as="geometry" />
        </mxCell>
        <mxCell id="z2Kg5yfgQwiQhaXom7FM-109" value="&lt;b&gt;Benchmark 2019-B12&lt;/b&gt;" style="rounded=0;whiteSpace=wrap;html=1;align=center;fillColor=#fff2cc;strokeColor=#d6b656;" vertex="1" parent="1">
          <mxGeometry x="1100" y="1350" width="120" height="40" as="geometry" />
        </mxCell>
        <mxCell id="z2Kg5yfgQwiQhaXom7FM-110" value="&lt;b&gt;Benchmark 2019-B11&lt;/b&gt;" style="rounded=0;whiteSpace=wrap;html=1;align=center;fillColor=#fff2cc;strokeColor=#d6b656;" vertex="1" parent="1">
          <mxGeometry x="1100" y="1410" width="120" height="40" as="geometry" />
        </mxCell>
        <mxCell id="z2Kg5yfgQwiQhaXom7FM-111" value="&lt;b&gt;Benchmark 2019-B13&lt;/b&gt;" style="rounded=0;whiteSpace=wrap;html=1;align=center;fillColor=#fff2cc;strokeColor=#d6b656;" vertex="1" parent="1">
          <mxGeometry x="1100" y="1480" width="120" height="40" as="geometry" />
        </mxCell>
        <mxCell id="z2Kg5yfgQwiQhaXom7FM-112" value="&lt;b&gt;CSAIL 2019-C16&lt;/b&gt;" style="rounded=0;whiteSpace=wrap;html=1;align=center;fillColor=#fff2cc;strokeColor=#d6b656;" vertex="1" parent="1">
          <mxGeometry x="1100" y="1540" width="120" height="40" as="geometry" />
        </mxCell>
        <mxCell id="z2Kg5yfgQwiQhaXom7FM-113" value="&lt;b&gt;NREC&lt;/b&gt;" style="rounded=0;whiteSpace=wrap;html=1;align=center;fillColor=#fff2cc;strokeColor=#d6b656;" vertex="1" parent="1">
          <mxGeometry x="1100" y="1590" width="120" height="40" as="geometry" />
        </mxCell>
        <mxCell id="z2Kg5yfgQwiQhaXom7FM-114" value="&lt;b&gt;MSC 2019-H7&lt;/b&gt;" style="rounded=0;whiteSpace=wrap;html=1;align=center;fillColor=#fff2cc;strokeColor=#d6b656;" vertex="1" parent="1">
          <mxGeometry x="1100" y="1650" width="120" height="40" as="geometry" />
        </mxCell>
        <mxCell id="z2Kg5yfgQwiQhaXom7FM-115" value="&lt;b&gt;CF 2019-CF1&lt;/b&gt;" style="rounded=0;whiteSpace=wrap;html=1;align=center;fillColor=#fff2cc;strokeColor=#d6b656;" vertex="1" parent="1">
          <mxGeometry x="1090" y="1713.5" width="120" height="40" as="geometry" />
        </mxCell>
        <mxCell id="z2Kg5yfgQwiQhaXom7FM-116" style="edgeStyle=orthogonalEdgeStyle;rounded=0;orthogonalLoop=1;jettySize=auto;html=1;exitX=1;exitY=0.5;exitDx=0;exitDy=0;entryX=0;entryY=0.5;entryDx=0;entryDy=0;" edge="1" parent="1" source="z2Kg5yfgQwiQhaXom7FM-99" target="z2Kg5yfgQwiQhaXom7FM-109">
          <mxGeometry relative="1" as="geometry" />
        </mxCell>
        <mxCell id="z2Kg5yfgQwiQhaXom7FM-117" style="edgeStyle=orthogonalEdgeStyle;rounded=0;orthogonalLoop=1;jettySize=auto;html=1;exitX=1;exitY=0.5;exitDx=0;exitDy=0;entryX=0;entryY=0.5;entryDx=0;entryDy=0;" edge="1" parent="1" source="z2Kg5yfgQwiQhaXom7FM-100" target="z2Kg5yfgQwiQhaXom7FM-110">
          <mxGeometry relative="1" as="geometry" />
        </mxCell>
        <mxCell id="z2Kg5yfgQwiQhaXom7FM-122" style="edgeStyle=orthogonalEdgeStyle;rounded=0;orthogonalLoop=1;jettySize=auto;html=1;exitX=1;exitY=0.5;exitDx=0;exitDy=0;entryX=0;entryY=0.5;entryDx=0;entryDy=0;" edge="1" parent="1" source="z2Kg5yfgQwiQhaXom7FM-118" target="z2Kg5yfgQwiQhaXom7FM-111">
          <mxGeometry relative="1" as="geometry" />
        </mxCell>
        <mxCell id="z2Kg5yfgQwiQhaXom7FM-123" style="edgeStyle=orthogonalEdgeStyle;rounded=0;orthogonalLoop=1;jettySize=auto;html=1;exitX=0;exitY=0.5;exitDx=0;exitDy=0;entryX=1;entryY=0.5;entryDx=0;entryDy=0;" edge="1" parent="1" source="z2Kg5yfgQwiQhaXom7FM-119" target="z2Kg5yfgQwiQhaXom7FM-7">
          <mxGeometry relative="1" as="geometry" />
        </mxCell>
        <mxCell id="z2Kg5yfgQwiQhaXom7FM-124" style="edgeStyle=orthogonalEdgeStyle;rounded=0;orthogonalLoop=1;jettySize=auto;html=1;exitX=1;exitY=0.5;exitDx=0;exitDy=0;" edge="1" parent="1" source="z2Kg5yfgQwiQhaXom7FM-120" target="z2Kg5yfgQwiQhaXom7FM-112">
          <mxGeometry relative="1" as="geometry" />
        </mxCell>
        <mxCell id="z2Kg5yfgQwiQhaXom7FM-125" style="edgeStyle=orthogonalEdgeStyle;rounded=0;orthogonalLoop=1;jettySize=auto;html=1;exitX=1;exitY=0.5;exitDx=0;exitDy=0;" edge="1" parent="1" source="z2Kg5yfgQwiQhaXom7FM-121" target="z2Kg5yfgQwiQhaXom7FM-113">
          <mxGeometry relative="1" as="geometry" />
        </mxCell>
        <mxCell id="z2Kg5yfgQwiQhaXom7FM-127" style="edgeStyle=orthogonalEdgeStyle;rounded=0;orthogonalLoop=1;jettySize=auto;html=1;exitX=1;exitY=0.5;exitDx=0;exitDy=0;entryX=0;entryY=0.5;entryDx=0;entryDy=0;" edge="1" parent="1" source="z2Kg5yfgQwiQhaXom7FM-126" target="z2Kg5yfgQwiQhaXom7FM-114">
          <mxGeometry relative="1" as="geometry" />
        </mxCell>
        <mxCell id="z2Kg5yfgQwiQhaXom7FM-129" style="edgeStyle=orthogonalEdgeStyle;rounded=0;orthogonalLoop=1;jettySize=auto;html=1;exitX=1;exitY=0.5;exitDx=0;exitDy=0;entryX=0;entryY=0.5;entryDx=0;entryDy=0;" edge="1" parent="1" source="z2Kg5yfgQwiQhaXom7FM-128" target="z2Kg5yfgQwiQhaXom7FM-115">
          <mxGeometry relative="1" as="geometry" />
        </mxCell>
        <mxCell id="z2Kg5yfgQwiQhaXom7FM-132" style="edgeStyle=orthogonalEdgeStyle;rounded=0;orthogonalLoop=1;jettySize=auto;html=1;exitX=1;exitY=0.5;exitDx=0;exitDy=0;entryX=0;entryY=0.5;entryDx=0;entryDy=0;" edge="1" parent="1" source="z2Kg5yfgQwiQhaXom7FM-130" target="z2Kg5yfgQwiQhaXom7FM-131">
          <mxGeometry relative="1" as="geometry" />
        </mxCell>
        <mxCell id="z2Kg5yfgQwiQhaXom7FM-131" value="&lt;b&gt;MSC 2019-H6&lt;/b&gt;" style="rounded=0;whiteSpace=wrap;html=1;align=center;fillColor=#fff2cc;strokeColor=#d6b656;" vertex="1" parent="1">
          <mxGeometry x="1090" y="1770" width="120" height="40" as="geometry" />
        </mxCell>
        <mxCell id="z2Kg5yfgQwiQhaXom7FM-133" value="&lt;b&gt;Benchmark 2019-B10&lt;/b&gt;" style="rounded=0;whiteSpace=wrap;html=1;align=center;fillColor=#fff2cc;strokeColor=#d6b656;" vertex="1" parent="1">
          <mxGeometry x="1090" y="1830" width="120" height="40" as="geometry" />
        </mxCell>
        <mxCell id="z2Kg5yfgQwiQhaXom7FM-135" style="edgeStyle=orthogonalEdgeStyle;rounded=0;orthogonalLoop=1;jettySize=auto;html=1;exitX=1;exitY=0.5;exitDx=0;exitDy=0;entryX=0;entryY=0.5;entryDx=0;entryDy=0;" edge="1" parent="1" source="z2Kg5yfgQwiQhaXom7FM-134" target="z2Kg5yfgQwiQhaXom7FM-133">
          <mxGeometry relative="1" as="geometry" />
        </mxCell>
        <mxCell id="z2Kg5yfgQwiQhaXom7FM-136" value="" style="group" vertex="1" connectable="0" parent="1">
          <mxGeometry x="630" y="1230" width="240" height="480" as="geometry" />
        </mxCell>
        <mxCell id="z2Kg5yfgQwiQhaXom7FM-96" value="&lt;font color=&quot;#000000&quot; face=&quot;arial, helvetica, sans-serif&quot;&gt;&lt;span style=&quot;font-size: 13.3333px&quot;&gt;&lt;b&gt;3 Columbus Circle&lt;/b&gt;&lt;/span&gt;&lt;/font&gt;" style="rounded=0;whiteSpace=wrap;html=1;fillColor=#f5f5f5;strokeColor=#666666;fontColor=#333333;align=center;labelPosition=center;verticalLabelPosition=top;verticalAlign=bottom;" vertex="1" parent="z2Kg5yfgQwiQhaXom7FM-136">
          <mxGeometry width="240" height="480" as="geometry" />
        </mxCell>
        <mxCell id="z2Kg5yfgQwiQhaXom7FM-97" value="&lt;span style=&quot;font-size: 16px&quot;&gt;&lt;b&gt;Note A-1-1, Note A-2-1&lt;/b&gt;&lt;/span&gt;" style="rounded=0;whiteSpace=wrap;html=1;align=center;" vertex="1" parent="z2Kg5yfgQwiQhaXom7FM-136">
          <mxGeometry width="240" height="40" as="geometry" />
        </mxCell>
        <mxCell id="z2Kg5yfgQwiQhaXom7FM-98" value="&lt;span style=&quot;font-size: 16px&quot;&gt;&lt;b&gt;Note A-1-2-A&lt;/b&gt;&lt;/span&gt;" style="rounded=0;whiteSpace=wrap;html=1;align=center;" vertex="1" parent="z2Kg5yfgQwiQhaXom7FM-136">
          <mxGeometry y="40" width="240" height="40" as="geometry" />
        </mxCell>
        <mxCell id="z2Kg5yfgQwiQhaXom7FM-99" value="&lt;span style=&quot;font-size: 16px&quot;&gt;&lt;b&gt;Note A-1-2-B, Note A-1-7&lt;/b&gt;&lt;/span&gt;" style="rounded=0;whiteSpace=wrap;html=1;align=center;" vertex="1" parent="z2Kg5yfgQwiQhaXom7FM-136">
          <mxGeometry y="80" width="240" height="40" as="geometry" />
        </mxCell>
        <mxCell id="z2Kg5yfgQwiQhaXom7FM-100" value="&lt;span style=&quot;font-size: 16px&quot;&gt;&lt;b&gt;Note A-1-3, Note A-2-4&lt;/b&gt;&lt;/span&gt;" style="rounded=0;whiteSpace=wrap;html=1;align=center;" vertex="1" parent="z2Kg5yfgQwiQhaXom7FM-136">
          <mxGeometry y="120" width="240" height="40" as="geometry" />
        </mxCell>
        <mxCell id="z2Kg5yfgQwiQhaXom7FM-118" value="&lt;span style=&quot;font-size: 16px&quot;&gt;&lt;b&gt;Note A-1-4-B, Note A-1-8&lt;/b&gt;&lt;/span&gt;" style="rounded=0;whiteSpace=wrap;html=1;align=center;" vertex="1" parent="z2Kg5yfgQwiQhaXom7FM-136">
          <mxGeometry y="160" width="240" height="40" as="geometry" />
        </mxCell>
        <mxCell id="z2Kg5yfgQwiQhaXom7FM-119" value="&lt;span style=&quot;font-size: 16px&quot;&gt;&lt;b&gt;Note A-1-4-A&lt;/b&gt;&lt;/span&gt;" style="rounded=0;whiteSpace=wrap;html=1;align=center;" vertex="1" parent="z2Kg5yfgQwiQhaXom7FM-136">
          <mxGeometry y="200" width="240" height="40" as="geometry" />
        </mxCell>
        <mxCell id="z2Kg5yfgQwiQhaXom7FM-120" value="&lt;span style=&quot;font-size: 16px&quot;&gt;&lt;b&gt;Note A-1-5&lt;/b&gt;&lt;/span&gt;" style="rounded=0;whiteSpace=wrap;html=1;align=center;" vertex="1" parent="z2Kg5yfgQwiQhaXom7FM-136">
          <mxGeometry y="240" width="240" height="40" as="geometry" />
        </mxCell>
        <mxCell id="z2Kg5yfgQwiQhaXom7FM-121" value="&lt;span style=&quot;font-size: 16px&quot;&gt;&lt;b&gt;Note A-1-6&lt;/b&gt;&lt;/span&gt;" style="rounded=0;whiteSpace=wrap;html=1;align=center;" vertex="1" parent="z2Kg5yfgQwiQhaXom7FM-136">
          <mxGeometry y="280" width="240" height="40" as="geometry" />
        </mxCell>
        <mxCell id="z2Kg5yfgQwiQhaXom7FM-126" value="&lt;span style=&quot;font-size: 16px&quot;&gt;&lt;b&gt;Note A-2-5-A&lt;/b&gt;&lt;/span&gt;" style="rounded=0;whiteSpace=wrap;html=1;align=center;" vertex="1" parent="z2Kg5yfgQwiQhaXom7FM-136">
          <mxGeometry y="320" width="240" height="40" as="geometry" />
        </mxCell>
        <mxCell id="z2Kg5yfgQwiQhaXom7FM-128" value="&lt;span style=&quot;font-size: 16px&quot;&gt;&lt;b&gt;Note A-2-2, Note A-2-3&lt;/b&gt;&lt;/span&gt;" style="rounded=0;whiteSpace=wrap;html=1;align=center;" vertex="1" parent="z2Kg5yfgQwiQhaXom7FM-136">
          <mxGeometry y="360" width="240" height="40" as="geometry" />
        </mxCell>
        <mxCell id="z2Kg5yfgQwiQhaXom7FM-130" value="&lt;span style=&quot;font-size: 16px&quot;&gt;&lt;b&gt;Note A-2-5-B&lt;/b&gt;&lt;/span&gt;" style="rounded=0;whiteSpace=wrap;html=1;align=center;" vertex="1" parent="z2Kg5yfgQwiQhaXom7FM-136">
          <mxGeometry y="400" width="240" height="40" as="geometry" />
        </mxCell>
        <mxCell id="z2Kg5yfgQwiQhaXom7FM-134" value="&lt;span style=&quot;font-size: 16px&quot;&gt;&lt;b&gt;Note B-1, Note B-2&lt;/b&gt;&lt;/span&gt;" style="rounded=0;whiteSpace=wrap;html=1;align=center;" vertex="1" parent="z2Kg5yfgQwiQhaXom7FM-136">
          <mxGeometry y="440" width="240" height="40" as="geometry" />
        </mxCell>
        <mxCell id="z2Kg5yfgQwiQhaXom7FM-149" value="" style="group" vertex="1" connectable="0" parent="1">
          <mxGeometry x="560" y="1850" width="240" height="80" as="geometry" />
        </mxCell>
        <mxCell id="z2Kg5yfgQwiQhaXom7FM-144" value="&lt;font color=&quot;#000000&quot; face=&quot;arial, helvetica, sans-serif&quot;&gt;&lt;span style=&quot;font-size: 13.3333px&quot;&gt;&lt;b&gt;Park Central Tower&lt;/b&gt;&lt;/span&gt;&lt;/font&gt;" style="rounded=0;whiteSpace=wrap;html=1;fillColor=#f5f5f5;strokeColor=#666666;fontColor=#333333;align=center;labelPosition=center;verticalLabelPosition=top;verticalAlign=bottom;" vertex="1" parent="z2Kg5yfgQwiQhaXom7FM-149">
          <mxGeometry width="240" height="80" as="geometry" />
        </mxCell>
        <mxCell id="z2Kg5yfgQwiQhaXom7FM-145" value="&lt;span style=&quot;font-size: 16px&quot;&gt;&lt;b&gt;Note A-1&lt;/b&gt;&lt;/span&gt;" style="rounded=0;whiteSpace=wrap;html=1;align=center;" vertex="1" parent="z2Kg5yfgQwiQhaXom7FM-149">
          <mxGeometry width="240" height="40" as="geometry" />
        </mxCell>
        <mxCell id="z2Kg5yfgQwiQhaXom7FM-146" value="&lt;span style=&quot;font-size: 16px&quot;&gt;&lt;b&gt;Note A-2&lt;/b&gt;&lt;/span&gt;" style="rounded=0;whiteSpace=wrap;html=1;align=center;" vertex="1" parent="z2Kg5yfgQwiQhaXom7FM-149">
          <mxGeometry y="40" width="240" height="40" as="geometry" />
        </mxCell>
        <mxCell id="z2Kg5yfgQwiQhaXom7FM-150" value="" style="group" vertex="1" connectable="0" parent="1">
          <mxGeometry x="560" y="2010" width="240" height="80" as="geometry" />
        </mxCell>
        <mxCell id="z2Kg5yfgQwiQhaXom7FM-151" value="&lt;font color=&quot;#000000&quot; face=&quot;arial, helvetica, sans-serif&quot;&gt;&lt;span style=&quot;font-size: 13.3333px&quot;&gt;&lt;b&gt;Airport Square&lt;/b&gt;&lt;/span&gt;&lt;/font&gt;" style="rounded=0;whiteSpace=wrap;html=1;fillColor=#f5f5f5;strokeColor=#666666;fontColor=#333333;align=center;labelPosition=center;verticalLabelPosition=top;verticalAlign=bottom;" vertex="1" parent="z2Kg5yfgQwiQhaXom7FM-150">
          <mxGeometry width="240" height="80" as="geometry" />
        </mxCell>
        <mxCell id="z2Kg5yfgQwiQhaXom7FM-152" value="&lt;span style=&quot;font-size: 16px&quot;&gt;&lt;b&gt;Note A-1&lt;/b&gt;&lt;/span&gt;" style="rounded=0;whiteSpace=wrap;html=1;align=center;" vertex="1" parent="z2Kg5yfgQwiQhaXom7FM-150">
          <mxGeometry width="240" height="40" as="geometry" />
        </mxCell>
        <mxCell id="z2Kg5yfgQwiQhaXom7FM-153" value="&lt;span style=&quot;font-size: 16px&quot;&gt;&lt;b&gt;Note A-2&lt;/b&gt;&lt;/span&gt;" style="rounded=0;whiteSpace=wrap;html=1;align=center;" vertex="1" parent="z2Kg5yfgQwiQhaXom7FM-150">
          <mxGeometry y="40" width="240" height="40" as="geometry" />
        </mxCell>
        <mxCell id="z2Kg5yfgQwiQhaXom7FM-155" value="&lt;b&gt;Starwood Mortgage Funding II&lt;/b&gt;" style="rounded=0;whiteSpace=wrap;html=1;align=center;fillColor=#fff2cc;strokeColor=#d6b656;" vertex="1" parent="1">
          <mxGeometry x="1090" y="1910" width="120" height="40" as="geometry" />
        </mxCell>
        <mxCell id="z2Kg5yfgQwiQhaXom7FM-156" style="edgeStyle=orthogonalEdgeStyle;rounded=0;orthogonalLoop=1;jettySize=auto;html=1;exitX=1;exitY=0.5;exitDx=0;exitDy=0;entryX=0;entryY=0.5;entryDx=0;entryDy=0;" edge="1" parent="1" source="z2Kg5yfgQwiQhaXom7FM-145" target="z2Kg5yfgQwiQhaXom7FM-155">
          <mxGeometry relative="1" as="geometry" />
        </mxCell>
        <mxCell id="z2Kg5yfgQwiQhaXom7FM-157" style="edgeStyle=orthogonalEdgeStyle;rounded=0;orthogonalLoop=1;jettySize=auto;html=1;exitX=0;exitY=0.5;exitDx=0;exitDy=0;entryX=1;entryY=0.5;entryDx=0;entryDy=0;" edge="1" parent="1" source="z2Kg5yfgQwiQhaXom7FM-146" target="z2Kg5yfgQwiQhaXom7FM-8">
          <mxGeometry relative="1" as="geometry" />
        </mxCell>
        <mxCell id="z2Kg5yfgQwiQhaXom7FM-158" style="edgeStyle=orthogonalEdgeStyle;rounded=0;orthogonalLoop=1;jettySize=auto;html=1;exitX=0;exitY=0.5;exitDx=0;exitDy=0;entryX=1;entryY=0.5;entryDx=0;entryDy=0;" edge="1" parent="1" source="z2Kg5yfgQwiQhaXom7FM-152" target="z2Kg5yfgQwiQhaXom7FM-10">
          <mxGeometry relative="1" as="geometry" />
        </mxCell>
        <mxCell id="z2Kg5yfgQwiQhaXom7FM-159" value="&lt;b&gt;CCRE&lt;/b&gt;" style="rounded=0;whiteSpace=wrap;html=1;align=center;fillColor=#fff2cc;strokeColor=#d6b656;" vertex="1" parent="1">
          <mxGeometry x="1090" y="1990" width="120" height="40" as="geometry" />
        </mxCell>
        <mxCell id="z2Kg5yfgQwiQhaXom7FM-161" style="edgeStyle=orthogonalEdgeStyle;rounded=0;orthogonalLoop=1;jettySize=auto;html=1;exitX=1;exitY=0.5;exitDx=0;exitDy=0;entryX=0;entryY=0.5;entryDx=0;entryDy=0;" edge="1" parent="1" source="z2Kg5yfgQwiQhaXom7FM-153" target="z2Kg5yfgQwiQhaXom7FM-159">
          <mxGeometry relative="1" as="geometry" />
        </mxCell>
        <mxCell id="z2Kg5yfgQwiQhaXom7FM-169" value="" style="group" vertex="1" connectable="0" parent="1">
          <mxGeometry x="560" y="2130" width="240" height="200" as="geometry" />
        </mxCell>
        <mxCell id="z2Kg5yfgQwiQhaXom7FM-163" value="&lt;font color=&quot;#000000&quot; face=&quot;arial, helvetica, sans-serif&quot;&gt;&lt;span style=&quot;font-size: 13.3333px&quot;&gt;&lt;b&gt;Bushwick Avenue Portfolio&lt;/b&gt;&lt;/span&gt;&lt;/font&gt;" style="rounded=0;whiteSpace=wrap;html=1;fillColor=#f5f5f5;strokeColor=#666666;fontColor=#333333;align=center;labelPosition=center;verticalLabelPosition=top;verticalAlign=bottom;" vertex="1" parent="z2Kg5yfgQwiQhaXom7FM-169">
          <mxGeometry width="240" height="200" as="geometry" />
        </mxCell>
        <mxCell id="z2Kg5yfgQwiQhaXom7FM-164" value="&lt;span style=&quot;font-size: 16px&quot;&gt;&lt;b&gt;Note A-1&lt;/b&gt;&lt;/span&gt;" style="rounded=0;whiteSpace=wrap;html=1;align=center;" vertex="1" parent="z2Kg5yfgQwiQhaXom7FM-169">
          <mxGeometry width="240" height="40" as="geometry" />
        </mxCell>
        <mxCell id="z2Kg5yfgQwiQhaXom7FM-165" value="&lt;span style=&quot;font-size: 16px&quot;&gt;&lt;b&gt;Note A-2&lt;/b&gt;&lt;/span&gt;" style="rounded=0;whiteSpace=wrap;html=1;align=center;" vertex="1" parent="z2Kg5yfgQwiQhaXom7FM-169">
          <mxGeometry y="40" width="240" height="40" as="geometry" />
        </mxCell>
        <mxCell id="z2Kg5yfgQwiQhaXom7FM-166" value="&lt;span style=&quot;font-size: 16px&quot;&gt;&lt;b&gt;Note A-3&lt;/b&gt;&lt;/span&gt;" style="rounded=0;whiteSpace=wrap;html=1;align=center;" vertex="1" parent="z2Kg5yfgQwiQhaXom7FM-169">
          <mxGeometry y="80" width="240" height="40" as="geometry" />
        </mxCell>
        <mxCell id="z2Kg5yfgQwiQhaXom7FM-167" value="&lt;b style=&quot;font-size: 16px&quot;&gt;Note A-4&lt;/b&gt;" style="rounded=0;whiteSpace=wrap;html=1;align=center;" vertex="1" parent="z2Kg5yfgQwiQhaXom7FM-169">
          <mxGeometry y="120" width="240" height="40" as="geometry" />
        </mxCell>
        <mxCell id="z2Kg5yfgQwiQhaXom7FM-168" value="&lt;b style=&quot;font-size: 16px&quot;&gt;Note A-5&lt;/b&gt;" style="rounded=0;whiteSpace=wrap;html=1;align=center;" vertex="1" parent="z2Kg5yfgQwiQhaXom7FM-169">
          <mxGeometry y="160" width="240" height="40" as="geometry" />
        </mxCell>
        <mxCell id="z2Kg5yfgQwiQhaXom7FM-170" value="&lt;b&gt;CF 2019-CF2&lt;/b&gt;" style="rounded=0;whiteSpace=wrap;html=1;align=center;fillColor=#fff2cc;strokeColor=#d6b656;" vertex="1" parent="1">
          <mxGeometry x="1080" y="2160" width="120" height="40" as="geometry" />
        </mxCell>
        <mxCell id="z2Kg5yfgQwiQhaXom7FM-171" style="edgeStyle=orthogonalEdgeStyle;rounded=0;orthogonalLoop=1;jettySize=auto;html=1;exitX=1;exitY=0.5;exitDx=0;exitDy=0;entryX=0;entryY=0.5;entryDx=0;entryDy=0;" edge="1" parent="1" source="z2Kg5yfgQwiQhaXom7FM-164" target="z2Kg5yfgQwiQhaXom7FM-170">
          <mxGeometry relative="1" as="geometry" />
        </mxCell>
        <mxCell id="z2Kg5yfgQwiQhaXom7FM-172" value="&lt;b&gt;GSMS 2019-GSA1&lt;/b&gt;" style="rounded=0;whiteSpace=wrap;html=1;align=center;fillColor=#fff2cc;strokeColor=#d6b656;" vertex="1" parent="1">
          <mxGeometry x="1080" y="2210" width="120" height="40" as="geometry" />
        </mxCell>
        <mxCell id="z2Kg5yfgQwiQhaXom7FM-173" style="edgeStyle=orthogonalEdgeStyle;rounded=0;orthogonalLoop=1;jettySize=auto;html=1;exitX=1;exitY=0.5;exitDx=0;exitDy=0;" edge="1" parent="1" source="z2Kg5yfgQwiQhaXom7FM-165" target="z2Kg5yfgQwiQhaXom7FM-172">
          <mxGeometry relative="1" as="geometry" />
        </mxCell>
        <mxCell id="z2Kg5yfgQwiQhaXom7FM-174" style="edgeStyle=orthogonalEdgeStyle;rounded=0;orthogonalLoop=1;jettySize=auto;html=1;exitX=1;exitY=0.5;exitDx=0;exitDy=0;entryX=0.417;entryY=1;entryDx=0;entryDy=0;entryPerimeter=0;" edge="1" parent="1" source="z2Kg5yfgQwiQhaXom7FM-166" target="z2Kg5yfgQwiQhaXom7FM-23">
          <mxGeometry relative="1" as="geometry" />
        </mxCell>
        <mxCell id="z2Kg5yfgQwiQhaXom7FM-175" style="edgeStyle=orthogonalEdgeStyle;rounded=0;orthogonalLoop=1;jettySize=auto;html=1;exitX=1;exitY=0.5;exitDx=0;exitDy=0;" edge="1" parent="1" source="z2Kg5yfgQwiQhaXom7FM-167" target="z2Kg5yfgQwiQhaXom7FM-23">
          <mxGeometry relative="1" as="geometry" />
        </mxCell>
        <mxCell id="z2Kg5yfgQwiQhaXom7FM-176" style="edgeStyle=orthogonalEdgeStyle;rounded=0;orthogonalLoop=1;jettySize=auto;html=1;exitX=0;exitY=0.5;exitDx=0;exitDy=0;entryX=1;entryY=0.5;entryDx=0;entryDy=0;" edge="1" parent="1" source="z2Kg5yfgQwiQhaXom7FM-168" target="z2Kg5yfgQwiQhaXom7FM-9">
          <mxGeometry relative="1" as="geometry" />
        </mxCell>
      </root>
    </mxGraphModel>
  </diagram>
</mxfile>
